<svg width="30" height="28" viewBox="0 0 30 28" fill="none" xmlns="http://www.w3.org/2000/svg">
<path id="Vector" d="M23.3127 0.55249C24.4689 0.55249 25.5002 1.72687 25.5002 3.30437C25.5002 4.88749 24.4689 6.05624 23.3127 6.05624C22.1564 6.05624 21.1252 4.88749 21.1252 3.30437C21.1252 1.72687 22.1564 0.55249 23.3127 0.55249ZM15.0064 0.55249C16.1564 0.55249 17.1939 1.72687 17.1939 3.30437C17.1939 4.88749 16.1564 6.05624 15.0064 6.05624C13.8502 6.05624 12.8127 4.88749 12.8127 3.30437C12.8127 1.72687 13.8502 0.55249 15.0064 0.55249ZM6.69394 0.55249C7.85019 0.55249 8.88144 1.72687 8.88144 3.30437C8.88144 4.88749 7.85019 6.05624 6.69394 6.05624C5.53769 6.05624 4.50082 4.88749 4.50082 3.30437C4.50082 1.72687 5.53769 0.55249 6.69394 0.55249ZM15.0064 7.36874C19.0064 7.49374 22.3814 7.49374 26.4314 7.63124C28.3627 8.74374 29.2564 14.4437 29.2002 16.425L28.1002 17.5312C27.6189 14.8562 27.0127 11.2875 26.0064 10.4937V15.9687L26.2627 27.45H24.8752L23.8314 15.9062H22.7064L21.6627 27.45H20.2689L20.5314 15.9687L20.0314 10.4375H18.2002L17.7502 15.95L18.0127 27.4312H16.6189L15.5689 15.8875H14.4439L13.3939 27.4312H12.0064L12.2689 15.95L11.8127 10.4375H9.98144L9.48144 15.9687L9.74394 27.45H8.35019L7.30644 15.9062H6.18144L5.12582 27.45H3.73832L4.00082 15.9687V10.4937C2.98832 11.2875 2.38207 14.8562 1.90082 17.5312L0.80082 16.425C0.74457 14.4437 1.64457 8.74374 3.56957 7.63124C7.63144 7.49374 11.0064 7.49374 15.0064 7.36874Z" fill="#F691FF"/>
</svg>
