<svg width="40" height="40" viewBox="0 0 40 40" fill="none" xmlns="http://www.w3.org/2000/svg">
<g id="Vector" filter="url(#filter0_d_64_41)">
<path d="M20.7903 0.16177C20.5413 0.0550363 20.2732 0 20.0023 0C19.7315 0 19.4634 0.0550363 19.2144 0.16177L5.21602 6.16144C4.85529 6.31512 4.54769 6.57147 4.33148 6.8986C4.11527 7.22573 4 7.60921 4 8.00134C4 8.39346 4.11527 8.77694 4.33148 9.10407C4.54769 9.4312 4.85529 9.68755 5.21602 9.84123L10.5034 12.1031C10.6997 11.8811 10.9429 11.7055 11.2153 11.5891L19.2144 8.16133C19.4565 8.05343 19.7176 7.99473 19.9825 7.98864C20.2475 7.98254 20.511 8.02917 20.7577 8.12581C21.0045 8.22245 21.2296 8.36717 21.4199 8.55157C21.6103 8.73598 21.7621 8.95637 21.8665 9.19996C21.9709 9.44354 22.0259 9.70546 22.0282 9.97047C22.0305 10.2355 21.9802 10.4983 21.88 10.7437C21.7799 10.9891 21.632 11.2121 21.4449 11.3998C21.2578 11.5875 21.0353 11.7362 20.7903 11.8371L15.3369 14.177L19.2164 15.8389C19.4651 15.9454 19.7328 16.0002 20.0033 16.0002C20.2739 16.0002 20.5416 15.9454 20.7903 15.8389L34.7887 9.83923C35.1482 9.68497 35.4546 9.42863 35.6699 9.10195C35.8852 8.77527 36 8.3926 36 8.00134C36 7.61007 35.8852 7.2274 35.6699 6.90072C35.4546 6.57404 35.1482 6.31769 34.7887 6.16344L20.7903 0.16377V0.16177ZM6.62386 14.795L10.0035 16.2409V24.4444C9.31106 24.287 8.60991 24.1708 7.90372 24.0964C7.44806 24.0485 7.02266 23.8456 6.69869 23.5216C6.37471 23.1976 6.17181 22.7722 6.12392 22.3165C5.86093 19.7985 6.03001 17.254 6.62386 14.793V14.795ZM18.6025 29.1462C17.2507 27.8197 15.6985 26.7142 14.003 25.8703V17.9568L17.6386 19.5167C18.3855 19.8369 19.1897 20.002 20.0023 20.002C20.815 20.002 21.6192 19.8369 22.3661 19.5167L33.3808 14.795C33.9782 17.2555 34.1473 19.8006 33.8808 22.3185C33.8329 22.7742 33.63 23.1996 33.306 23.5236C32.982 23.8476 32.5566 24.0505 32.101 24.0984C28.0665 24.5225 24.2949 26.3019 21.4022 29.1462C21.0284 29.5126 20.5258 29.7178 20.0023 29.7178C19.4789 29.7178 18.9763 29.5126 18.6025 29.1462ZM12.0033 32C12.5336 32 13.0423 31.7893 13.4173 31.4142C13.7923 31.0392 14.003 30.5305 14.003 30.0001V25.8703C12.7312 25.2384 11.3885 24.7584 10.0035 24.4444V30.0001C10.0035 30.5305 10.2142 31.0392 10.5892 31.4142C10.9642 31.7893 11.4729 32 12.0033 32Z" fill="#F691FF"/>
</g>
<defs>
<filter id="filter0_d_64_41" x="0" y="0" width="40" height="40" filterUnits="userSpaceOnUse" color-interpolation-filters="sRGB">
<feFlood flood-opacity="0" result="BackgroundImageFix"/>
<feColorMatrix in="SourceAlpha" type="matrix" values="0 0 0 0 0 0 0 0 0 0 0 0 0 0 0 0 0 0 127 0" result="hardAlpha"/>
<feOffset dy="4"/>
<feGaussianBlur stdDeviation="2"/>
<feComposite in2="hardAlpha" operator="out"/>
<feColorMatrix type="matrix" values="0 0 0 0 0 0 0 0 0 0 0 0 0 0 0 0 0 0 0.25 0"/>
<feBlend mode="normal" in2="BackgroundImageFix" result="effect1_dropShadow_64_41"/>
<feBlend mode="normal" in="SourceGraphic" in2="effect1_dropShadow_64_41" result="shape"/>
</filter>
</defs>
</svg>
